<mxfile host="65bd71144e">
    <diagram id="gUIPduOiurFyqF2iimPB" name="PÃ¡gina-1">
        <mxGraphModel dx="975" dy="514" grid="1" gridSize="10" guides="1" tooltips="1" connect="1" arrows="1" fold="1" page="1" pageScale="1" pageWidth="827" pageHeight="1169" math="0" shadow="0">
            <root>
                <mxCell id="0"/>
                <mxCell id="1" parent="0"/>
                <mxCell id="2" value="12" style="rounded=0;whiteSpace=wrap;html=1;" parent="1" vertex="1">
                    <mxGeometry x="70" y="230" width="120" height="60" as="geometry"/>
                </mxCell>
                <mxCell id="3" value="11" style="rounded=0;whiteSpace=wrap;html=1;" parent="1" vertex="1">
                    <mxGeometry x="190" y="230" width="120" height="60" as="geometry"/>
                </mxCell>
                <mxCell id="4" value="20" style="rounded=0;whiteSpace=wrap;html=1;" parent="1" vertex="1">
                    <mxGeometry x="310" y="230" width="120" height="60" as="geometry"/>
                </mxCell>
                <mxCell id="5" value="25" style="rounded=0;whiteSpace=wrap;html=1;" parent="1" vertex="1">
                    <mxGeometry x="430" y="230" width="120" height="60" as="geometry"/>
                </mxCell>
                <mxCell id="6" value="9" style="rounded=0;whiteSpace=wrap;html=1;" parent="1" vertex="1">
                    <mxGeometry x="550" y="230" width="120" height="60" as="geometry"/>
                </mxCell>
                <mxCell id="7" value="" style="endArrow=classic;html=1;" parent="1" edge="1">
                    <mxGeometry width="50" height="50" relative="1" as="geometry">
                        <mxPoint x="240" y="150" as="sourcePoint"/>
                        <mxPoint x="240" y="210" as="targetPoint"/>
                    </mxGeometry>
                </mxCell>
                <mxCell id="9" value="aux = 0" style="text;html=1;align=center;verticalAlign=middle;resizable=0;points=[];autosize=1;strokeColor=none;fillColor=none;" parent="1" vertex="1">
                    <mxGeometry x="90" y="130" width="60" height="20" as="geometry"/>
                </mxCell>
                <mxCell id="10" value="Text" style="text;html=1;align=center;verticalAlign=middle;resizable=0;points=[];autosize=1;strokeColor=none;fillColor=none;" parent="1" vertex="1">
                    <mxGeometry x="80" y="340" width="40" height="20" as="geometry"/>
                </mxCell>
            </root>
        </mxGraphModel>
    </diagram>
</mxfile>